<svg xmlns="http://www.w3.org/2000/svg" viewBox="0 0 400 300" width="400" height="300">
  <rect width="400" height="300" fill="#0a0a0f" rx="12"/>

  <!-- Cloud shape - hand drawn style with wobbly path -->
  <path d="M 122 182
    C 117 179, 97 176, 92 161
    C 85 143, 97 126, 117 121
    C 119 106, 137 89, 162 91
    C 176 76, 207 71, 227 83
    C 242 73, 272 76, 282 93
    C 302 89, 322 101, 319 121
    C 337 126, 342 146, 331 161
    C 337 176, 321 186, 307 183
    C 302 186, 287 189, 282 186
    L 122 182 Z"
    fill="#1a1a2e"
    stroke="#4a90d9"
    stroke-width="2.5"
    stroke-linecap="round"
    stroke-linejoin="round"
    opacity="0.9"/>

  <!-- Second cloud outline for hand-drawn effect -->
  <path d="M 124 181
    C 118 178, 99 175, 94 162
    C 87 144, 99 127, 119 122
    C 121 107, 139 91, 163 93
    C 178 78, 208 73, 228 84
    C 243 74, 271 77, 281 94
    C 301 90, 320 102, 318 122
    C 335 127, 340 147, 330 162
    C 335 177, 319 185, 306 183
    C 301 185, 286 188, 281 185"
    fill="none"
    stroke="#4a90d9"
    stroke-width="1.5"
    stroke-linecap="round"
    stroke-linejoin="round"
    stroke-dasharray="2,4"
    opacity="0.4"/>

  <!-- Server rack 1 -->
  <rect x="152" y="122" width="38" height="48" rx="4" fill="#1a1a2e" stroke="#22d3ee" stroke-width="1.8" opacity="0.9"/>
  <line x1="156" y1="133" x2="186" y2="133" stroke="#22d3ee" stroke-width="1.2" opacity="0.6"/>
  <line x1="156" y1="143" x2="186" y2="143" stroke="#22d3ee" stroke-width="1.2" opacity="0.6"/>
  <line x1="156" y1="153" x2="186" y2="153" stroke="#22d3ee" stroke-width="1.2" opacity="0.6"/>
  <circle cx="183" cy="128" r="2.5" fill="#22d3ee" opacity="0.9"/>
  <circle cx="183" cy="138" r="2.5" fill="#4a90d9" opacity="0.9"/>
  <circle cx="183" cy="148" r="2.5" fill="#22d3ee" opacity="0.9"/>
  <circle cx="183" cy="158" r="2" fill="#8b5cf6" opacity="0.7"/>

  <!-- Server rack 2 -->
  <rect x="208" y="122" width="38" height="48" rx="4" fill="#1a1a2e" stroke="#22d3ee" stroke-width="1.8" opacity="0.9"/>
  <line x1="212" y1="133" x2="242" y2="133" stroke="#22d3ee" stroke-width="1.2" opacity="0.6"/>
  <line x1="212" y1="143" x2="242" y2="143" stroke="#22d3ee" stroke-width="1.2" opacity="0.6"/>
  <line x1="212" y1="153" x2="242" y2="153" stroke="#22d3ee" stroke-width="1.2" opacity="0.6"/>
  <circle cx="239" cy="128" r="2.5" fill="#8b5cf6" opacity="0.9"/>
  <circle cx="239" cy="138" r="2.5" fill="#22d3ee" opacity="0.9"/>
  <circle cx="239" cy="148" r="2.5" fill="#4a90d9" opacity="0.9"/>
  <circle cx="239" cy="158" r="2" fill="#22d3ee" opacity="0.7"/>

  <!-- Connection lines from cloud to devices -->
  <path d="M 170 186 Q 160 205 155 222" stroke="#4a90d9" stroke-width="1.5" stroke-dasharray="4,3" fill="none" opacity="0.7"/>
  <path d="M 200 188 Q 200 206 200 225" stroke="#4a90d9" stroke-width="1.5" stroke-dasharray="4,3" fill="none" opacity="0.7"/>
  <path d="M 230 186 Q 240 205 245 222" stroke="#4a90d9" stroke-width="1.5" stroke-dasharray="4,3" fill="none" opacity="0.7"/>

  <!-- Bottom devices - Laptop -->
  <path d="M 132 227 L 165 226 L 166 246 L 131 247 Z" fill="none" stroke="#94a3b8" stroke-width="1.5" stroke-linejoin="round"/>
  <line x1="127" y1="249" x2="170" y2="248" stroke="#94a3b8" stroke-width="2" stroke-linecap="round"/>

  <!-- Monitor -->
  <rect x="184" y="223" width="30" height="23" rx="2" fill="none" stroke="#94a3b8" stroke-width="1.5"/>
  <line x1="199" y1="246" x2="199" y2="254" stroke="#94a3b8" stroke-width="1.5"/>
  <line x1="191" y1="254" x2="207" y2="254" stroke="#94a3b8" stroke-width="1.8" stroke-linecap="round"/>

  <!-- Phone -->
  <rect x="238" y="226" width="16" height="27" rx="3" fill="none" stroke="#94a3b8" stroke-width="1.5"/>
  <line x1="243" y1="248" x2="249" y2="248" stroke="#94a3b8" stroke-width="1" stroke-linecap="round"/>

  <!-- Data flow particles -->
  <circle cx="157" cy="205" r="2.5" fill="#8b5cf6" opacity="0.8"/>
  <circle cx="200" cy="208" r="2.5" fill="#22d3ee" opacity="0.8"/>
  <circle cx="243" cy="205" r="2.5" fill="#8b5cf6" opacity="0.8"/>
  <circle cx="165" cy="195" r="1.5" fill="#22d3ee" opacity="0.5"/>
  <circle cx="235" cy="195" r="1.5" fill="#22d3ee" opacity="0.5"/>

  <!-- Label -->
  <text x="200" y="282" text-anchor="middle" fill="#e5e7eb" font-family="'Segoe UI', system-ui, sans-serif" font-size="11" opacity="0.6" font-weight="300">Cloud Infrastructure</text>
</svg>