<svg xmlns="http://www.w3.org/2000/svg" viewBox="0 0 1088 688" width="1088" height="688">
  <rect width="1088" height="688" fill="#0a0a0f" rx="16"/>

  <!-- Stars/dots in sky -->
  <circle cx="150" cy="80" r="1.5" fill="#e5e7eb" opacity="0.4"/>
  <circle cx="300" cy="50" r="1" fill="#e5e7eb" opacity="0.3"/>
  <circle cx="450" cy="100" r="1.5" fill="#e5e7eb" opacity="0.5"/>
  <circle cx="600" cy="60" r="1" fill="#e5e7eb" opacity="0.3"/>
  <circle cx="750" cy="90" r="1.5" fill="#e5e7eb" opacity="0.4"/>
  <circle cx="900" cy="70" r="1" fill="#e5e7eb" opacity="0.3"/>
  <circle cx="200" cy="130" r="1" fill="#e5e7eb" opacity="0.2"/>
  <circle cx="850" cy="120" r="1" fill="#e5e7eb" opacity="0.2"/>

  <!-- Background mountain range -->
  <path d="M 0 550 L 120 380 L 200 420 L 320 330 L 400 370 L 480 290 L 560 350 L 650 300 L 720 360 L 830 280 L 900 330 L 1000 260 L 1088 320 L 1088 688 L 0 688 Z"
    fill="#1a1a2e" opacity="0.6"/>

  <!-- Main mountain - hand drawn -->
  <path d="M 250 580 L 400 300 L 420 310 L 450 280 L 470 295 L 520 220 L 545 235 L 570 200 L 600 230 L 620 210 L 680 290 L 700 310 L 750 340 L 830 580 Z"
    fill="none" stroke="#4a90d9" stroke-width="2.5" stroke-linejoin="round" stroke-linecap="round"/>
  <path d="M 250 580 L 400 300 L 420 310 L 450 280 L 470 295 L 520 220 L 545 235 L 570 200 L 600 230 L 620 210 L 680 290 L 700 310 L 750 340 L 830 580 Z"
    fill="#4a90d9" opacity="0.1"/>

  <!-- Snow cap -->
  <path d="M 520 220 L 545 235 L 570 200 L 600 230 L 620 210 L 580 260 L 550 250 L 530 265 L 505 250 Z"
    fill="#e5e7eb" opacity="0.15" stroke="#e5e7eb" stroke-width="1" stroke-opacity="0.4"/>

  <!-- Second mountain -->
  <path d="M 100 580 L 200 380 L 230 400 L 280 350 L 310 370 L 350 320 L 380 345 L 420 380 L 480 580 Z"
    fill="none" stroke="#22d3ee" stroke-width="2" stroke-linejoin="round" stroke-linecap="round" opacity="0.7"/>
  <path d="M 100 580 L 200 380 L 230 400 L 280 350 L 310 370 L 350 320 L 380 345 L 420 380 L 480 580 Z"
    fill="#22d3ee" opacity="0.06"/>

  <!-- Third mountain -->
  <path d="M 650 580 L 750 400 L 780 420 L 820 370 L 860 395 L 900 350 L 940 380 L 980 580 Z"
    fill="none" stroke="#8b5cf6" stroke-width="2" stroke-linejoin="round" stroke-linecap="round" opacity="0.6"/>
  <path d="M 650 580 L 750 400 L 780 420 L 820 370 L 860 395 L 900 350 L 940 380 L 980 580 Z"
    fill="#8b5cf6" opacity="0.06"/>

  <!-- Flag at summit -->
  <line x1="570" y1="200" x2="570" y2="170" stroke="#e5e7eb" stroke-width="1.5" stroke-linecap="round"/>
  <path d="M 570 170 L 595 178 L 570 186" fill="#8b5cf6" opacity="0.8" stroke="#8b5cf6" stroke-width="1"/>

  <!-- Ground/horizon line -->
  <path d="M 0 580 Q 200 575 400 580 Q 600 585 800 580 Q 1000 575 1088 580"
    fill="none" stroke="#94a3b8" stroke-width="1" opacity="0.3"/>

  <!-- Path up the mountain (dashed) -->
  <path d="M 540 580 Q 550 500 555 450 Q 558 400 562 350 Q 565 300 567 250 Q 569 220 570 200"
    fill="none" stroke="#22d3ee" stroke-width="1.5" stroke-dasharray="5,5" opacity="0.4"/>

  <!-- Achievement text -->
  <text x="544" y="640" text-anchor="middle" fill="#e5e7eb" font-family="'Segoe UI', system-ui, sans-serif" font-size="14" opacity="0.5" font-weight="300">Achievement Unlocked</text>
</svg>