<svg xmlns="http://www.w3.org/2000/svg" viewBox="0 0 1129 663" width="1129" height="663">
  <rect width="1129" height="663" fill="#0a0a0f" rx="16"/>

  <!-- Ground line -->
  <path d="M 0 580 Q 200 578 400 580 Q 565 582 700 580 Q 900 578 1129 580"
    fill="none" stroke="#94a3b8" stroke-width="1" opacity="0.3"/>

  <!-- Tree trunk - hand drawn -->
  <path d="M 555 580 Q 553 530 556 480 Q 558 430 554 390 Q 552 360 557 330 Q 559 300 555 270"
    fill="none" stroke="#94a3b8" stroke-width="4" stroke-linecap="round" opacity="0.8"/>

  <!-- Second trunk line for hand-drawn feel -->
  <path d="M 562 580 Q 560 530 563 480 Q 565 430 561 390 Q 559 360 564 330 Q 566 300 562 270"
    fill="none" stroke="#94a3b8" stroke-width="2" stroke-linecap="round" opacity="0.4"/>

  <!-- Main branches -->
  <path d="M 556 350 Q 510 320 470 310" fill="none" stroke="#94a3b8" stroke-width="2.5" stroke-linecap="round" opacity="0.7"/>
  <path d="M 560 350 Q 610 320 650 310" fill="none" stroke="#94a3b8" stroke-width="2.5" stroke-linecap="round" opacity="0.7"/>
  <path d="M 554 310 Q 500 280 460 260" fill="none" stroke="#94a3b8" stroke-width="2" stroke-linecap="round" opacity="0.6"/>
  <path d="M 562 310 Q 620 280 660 260" fill="none" stroke="#94a3b8" stroke-width="2" stroke-linecap="round" opacity="0.6"/>
  <path d="M 555 280 Q 520 250 490 230" fill="none" stroke="#94a3b8" stroke-width="1.5" stroke-linecap="round" opacity="0.5"/>
  <path d="M 561 280 Q 600 250 630 230" fill="none" stroke="#94a3b8" stroke-width="1.5" stroke-linecap="round" opacity="0.5"/>

  <!-- Leaf clusters - circles with varying sizes for organic feel -->
  <!-- Left side -->
  <circle cx="460" cy="305" r="22" fill="#4a90d9" opacity="0.2" stroke="#4a90d9" stroke-width="1.5" stroke-opacity="0.5"/>
  <circle cx="445" cy="275" r="18" fill="#22d3ee" opacity="0.15" stroke="#22d3ee" stroke-width="1.5" stroke-opacity="0.4"/>
  <circle cx="480" cy="260" r="20" fill="#4a90d9" opacity="0.2" stroke="#4a90d9" stroke-width="1.5" stroke-opacity="0.5"/>
  <circle cx="490" cy="225" r="16" fill="#22d3ee" opacity="0.15" stroke="#22d3ee" stroke-width="1.5" stroke-opacity="0.4"/>
  <circle cx="510" cy="200" r="18" fill="#4a90d9" opacity="0.2" stroke="#4a90d9" stroke-width="1.5" stroke-opacity="0.5"/>
  <circle cx="530" cy="180" r="15" fill="#8b5cf6" opacity="0.15" stroke="#8b5cf6" stroke-width="1.5" stroke-opacity="0.4"/>

  <!-- Right side -->
  <circle cx="650" cy="305" r="22" fill="#22d3ee" opacity="0.2" stroke="#22d3ee" stroke-width="1.5" stroke-opacity="0.5"/>
  <circle cx="665" cy="275" r="18" fill="#4a90d9" opacity="0.15" stroke="#4a90d9" stroke-width="1.5" stroke-opacity="0.4"/>
  <circle cx="635" cy="255" r="20" fill="#22d3ee" opacity="0.2" stroke="#22d3ee" stroke-width="1.5" stroke-opacity="0.5"/>
  <circle cx="625" cy="225" r="16" fill="#8b5cf6" opacity="0.15" stroke="#8b5cf6" stroke-width="1.5" stroke-opacity="0.4"/>
  <circle cx="605" cy="200" r="18" fill="#4a90d9" opacity="0.2" stroke="#4a90d9" stroke-width="1.5" stroke-opacity="0.5"/>
  <circle cx="585" cy="180" r="15" fill="#22d3ee" opacity="0.15" stroke="#22d3ee" stroke-width="1.5" stroke-opacity="0.4"/>

  <!-- Top -->
  <circle cx="558" cy="165" r="20" fill="#8b5cf6" opacity="0.2" stroke="#8b5cf6" stroke-width="1.5" stroke-opacity="0.5"/>
  <circle cx="545" cy="185" r="16" fill="#4a90d9" opacity="0.15" stroke="#4a90d9" stroke-width="1.5" stroke-opacity="0.4"/>
  <circle cx="575" cy="185" r="16" fill="#22d3ee" opacity="0.15" stroke="#22d3ee" stroke-width="1.5" stroke-opacity="0.4"/>

  <!-- Growth arrows going up -->
  <path d="M 558 150 L 558 120" stroke="#22d3ee" stroke-width="1.5" stroke-linecap="round" opacity="0.5"/>
  <polygon points="553,125 558,112 563,125" fill="#22d3ee" opacity="0.5"/>

  <path d="M 530 160 L 515 140" stroke="#4a90d9" stroke-width="1" stroke-linecap="round" opacity="0.4"/>
  <polygon points="513,147 512,135 522,142" fill="#4a90d9" opacity="0.4"/>

  <path d="M 588 160 L 603 140" stroke="#8b5cf6" stroke-width="1" stroke-linecap="round" opacity="0.4"/>
  <polygon points="596,142 606,135 605,147" fill="#8b5cf6" opacity="0.4"/>

  <!-- Root system below ground -->
  <path d="M 555 580 Q 530 600 500 615" fill="none" stroke="#94a3b8" stroke-width="1.5" stroke-linecap="round" opacity="0.3"/>
  <path d="M 560 580 Q 590 600 620 615" fill="none" stroke="#94a3b8" stroke-width="1.5" stroke-linecap="round" opacity="0.3"/>
  <path d="M 557 580 Q 545 610 530 630" fill="none" stroke="#94a3b8" stroke-width="1" stroke-linecap="round" opacity="0.2"/>
  <path d="M 559 580 Q 575 610 590 630" fill="none" stroke="#94a3b8" stroke-width="1" stroke-linecap="round" opacity="0.2"/>

  <!-- Label -->
  <text x="565" y="650" text-anchor="middle" fill="#e5e7eb" font-family="'Segoe UI', system-ui, sans-serif" font-size="14" opacity="0.5" font-weight="300">Growth &amp; Knowledge</text>
</svg>